# MagicaVoxel @ Ephtracy

# group
o 

# material
mtllib holodilnik.mtl
usemtl palette

# normals
vn -1 0 0
vn 1 0 0
vn 0 0 1
vn 0 0 -1
vn 0 -1 0
vn 0 1 0

# texcoords
vt 0.962891 0.5
vt 0.966797 0.5
vt 0.978516 0.5

# verts
v -1 0 0.8
v -1 0 -0.6
v -1 3 0.8
v -1 3 -0.6
v -0.9 0.1 0.9
v -0.9 0.1 0.8
v -0.9 1.9 0.9
v -0.9 1.9 0.8
v -0.9 2.1 0.9
v -0.9 2.1 0.8
v -0.9 2.9 0.9
v -0.9 2.9 0.8
v -0.7 0.9 1.1
v -0.7 0.9 0.9
v -0.7 1 1
v -0.7 1 0.9
v -0.7 1.6 1
v -0.7 1.6 0.9
v -0.7 1.7 1.1
v -0.7 1.7 0.9
v -0.7 2.3 1.1
v -0.7 2.3 0.9
v -0.7 2.4 1
v -0.7 2.4 0.9
v -0.7 2.6 1
v -0.7 2.6 0.9
v -0.7 2.7 1.1
v -0.7 2.7 0.9
v -0.6 0.9 1.1
v -0.6 0.9 0.9
v -0.6 1 1
v -0.6 1 0.9
v -0.6 1.6 1
v -0.6 1.6 0.9
v -0.6 1.7 1.1
v -0.6 1.7 0.9
v -0.6 2.3 1.1
v -0.6 2.3 0.9
v -0.6 2.4 1
v -0.6 2.4 0.9
v -0.6 2.6 1
v -0.6 2.6 0.9
v -0.6 2.7 1.1
v -0.6 2.7 0.9
v 0.9 0.1 0.9
v 0.9 0.1 0.8
v 0.9 1.9 0.9
v 0.9 1.9 0.8
v 0.9 2.1 0.9
v 0.9 2.1 0.8
v 0.9 2.9 0.9
v 0.9 2.9 0.8
v 1 0 0.8
v 1 0 -0.6
v 1 3 0.8
v 1 3 -0.6
v -0.7 0.9 1.1
v -0.7 1.7 1.1
v -0.7 2.3 1.1
v -0.7 2.7 1.1
v -0.6 0.9 1.1
v -0.6 1.7 1.1
v -0.6 2.3 1.1
v -0.6 2.7 1.1
v -0.9 0.1 0.9
v -0.9 1.9 0.9
v -0.9 2.1 0.9
v -0.9 2.9 0.9
v -0.7 0.9 0.9
v -0.7 1 0.9
v -0.7 1.6 0.9
v -0.7 1.7 0.9
v -0.7 2.3 0.9
v -0.7 2.4 0.9
v -0.7 2.6 0.9
v -0.7 2.7 0.9
v -0.6 0.9 0.9
v -0.6 1 0.9
v -0.6 1.6 0.9
v -0.6 1.7 0.9
v -0.6 2.3 0.9
v -0.6 2.4 0.9
v -0.6 2.6 0.9
v -0.6 2.7 0.9
v 0.9 0.1 0.9
v 0.9 1.9 0.9
v 0.9 2.1 0.9
v 0.9 2.9 0.9
v -1 0 0.8
v -1 3 0.8
v -0.9 0.1 0.8
v -0.9 1.9 0.8
v -0.9 2.1 0.8
v -0.9 2.9 0.8
v 0.9 0.1 0.8
v 0.9 1.9 0.8
v 0.9 2.1 0.8
v 0.9 2.9 0.8
v 1 0 0.8
v 1 3 0.8
v -0.7 1 1
v -0.7 1.6 1
v -0.7 2.4 1
v -0.7 2.6 1
v -0.6 1 1
v -0.6 1.6 1
v -0.6 2.4 1
v -0.6 2.6 1
v -1 0 -0.6
v -1 3 -0.6
v 1 0 -0.6
v 1 3 -0.6
v -1 0 0.8
v 1 0 0.8
v -1 0 -0.6
v 1 0 -0.6
v -0.9 0.1 0.9
v 0.9 0.1 0.9
v -0.9 0.1 0.8
v 0.9 0.1 0.8
v -0.7 0.9 1.1
v -0.6 0.9 1.1
v -0.7 0.9 0.9
v -0.6 0.9 0.9
v -0.7 1.6 1
v -0.6 1.6 1
v -0.7 1.6 0.9
v -0.6 1.6 0.9
v -0.9 2.1 0.9
v 0.9 2.1 0.9
v -0.9 2.1 0.8
v 0.9 2.1 0.8
v -0.7 2.3 1.1
v -0.6 2.3 1.1
v -0.7 2.3 0.9
v -0.6 2.3 0.9
v -0.7 2.6 1
v -0.6 2.6 1
v -0.7 2.6 0.9
v -0.6 2.6 0.9
v -0.7 1 1
v -0.6 1 1
v -0.7 1 0.9
v -0.6 1 0.9
v -0.7 1.7 1.1
v -0.6 1.7 1.1
v -0.7 1.7 0.9
v -0.6 1.7 0.9
v -0.9 1.9 0.9
v 0.9 1.9 0.9
v -0.9 1.9 0.8
v 0.9 1.9 0.8
v -0.7 2.4 1
v -0.6 2.4 1
v -0.7 2.4 0.9
v -0.6 2.4 0.9
v -0.7 2.7 1.1
v -0.6 2.7 1.1
v -0.7 2.7 0.9
v -0.6 2.7 0.9
v -0.9 2.9 0.9
v 0.9 2.9 0.9
v -0.9 2.9 0.8
v 0.9 2.9 0.8
v -1 3 0.8
v 1 3 0.8
v -1 3 -0.6
v 1 3 -0.6

# faces
f 3/1/1 2/1/1 1/1/1
f 4/1/1 2/1/1 3/1/1
f 7/2/1 6/2/1 5/2/1
f 8/2/1 6/2/1 7/2/1
f 11/2/1 10/2/1 9/2/1
f 12/2/1 10/2/1 11/2/1
f 15/3/1 14/3/1 13/3/1
f 16/3/1 14/3/1 15/3/1
f 17/3/1 15/3/1 13/3/1
f 19/3/1 17/3/1 13/3/1
f 19/3/1 18/3/1 17/3/1
f 20/3/1 18/3/1 19/3/1
f 23/3/1 22/3/1 21/3/1
f 24/3/1 22/3/1 23/3/1
f 25/3/1 23/3/1 21/3/1
f 27/3/1 25/3/1 21/3/1
f 27/3/1 26/3/1 25/3/1
f 28/3/1 26/3/1 27/3/1
f 29/3/2 30/3/2 31/3/2
f 31/3/2 30/3/2 32/3/2
f 29/3/2 31/3/2 33/3/2
f 29/3/2 33/3/2 35/3/2
f 33/3/2 34/3/2 35/3/2
f 35/3/2 34/3/2 36/3/2
f 37/3/2 38/3/2 39/3/2
f 39/3/2 38/3/2 40/3/2
f 37/3/2 39/3/2 41/3/2
f 37/3/2 41/3/2 43/3/2
f 41/3/2 42/3/2 43/3/2
f 43/3/2 42/3/2 44/3/2
f 45/2/2 46/2/2 47/2/2
f 47/2/2 46/2/2 48/2/2
f 49/2/2 50/2/2 51/2/2
f 51/2/2 50/2/2 52/2/2
f 53/1/2 54/1/2 55/1/2
f 55/1/2 54/1/2 56/1/2
f 61/3/3 58/3/3 57/3/3
f 62/3/3 58/3/3 61/3/3
f 63/3/3 60/3/3 59/3/3
f 64/3/3 60/3/3 63/3/3
f 69/2/3 66/2/3 65/2/3
f 70/2/3 66/2/3 69/2/3
f 71/2/3 66/2/3 70/2/3
f 72/2/3 66/2/3 71/2/3
f 73/2/3 68/2/3 67/2/3
f 74/2/3 68/2/3 73/2/3
f 75/2/3 68/2/3 74/2/3
f 76/2/3 68/2/3 75/2/3
f 77/2/3 69/2/3 65/2/3
f 78/2/3 71/2/3 70/2/3
f 79/2/3 71/2/3 78/2/3
f 80/2/3 66/2/3 72/2/3
f 81/2/3 73/2/3 67/2/3
f 82/2/3 75/2/3 74/2/3
f 83/2/3 75/2/3 82/2/3
f 84/2/3 68/2/3 76/2/3
f 85/2/3 79/2/3 78/2/3
f 85/2/3 77/2/3 65/2/3
f 85/2/3 80/2/3 79/2/3
f 85/2/3 78/2/3 77/2/3
f 86/2/3 66/2/3 80/2/3
f 86/2/3 80/2/3 85/2/3
f 87/2/3 84/2/3 83/2/3
f 87/2/3 83/2/3 82/2/3
f 87/2/3 81/2/3 67/2/3
f 87/2/3 82/2/3 81/2/3
f 88/2/3 68/2/3 84/2/3
f 88/2/3 84/2/3 87/2/3
f 91/1/3 90/1/3 89/1/3
f 92/1/3 90/1/3 91/1/3
f 93/1/3 90/1/3 92/1/3
f 94/1/3 90/1/3 93/1/3
f 95/1/3 91/1/3 89/1/3
f 96/1/3 93/1/3 92/1/3
f 97/1/3 93/1/3 96/1/3
f 98/1/3 90/1/3 94/1/3
f 99/1/3 97/1/3 96/1/3
f 99/1/3 98/1/3 97/1/3
f 99/1/3 95/1/3 89/1/3
f 99/1/3 96/1/3 95/1/3
f 100/1/3 90/1/3 98/1/3
f 100/1/3 98/1/3 99/1/3
f 101/3/4 102/3/4 105/3/4
f 105/3/4 102/3/4 106/3/4
f 103/3/4 104/3/4 107/3/4
f 107/3/4 104/3/4 108/3/4
f 109/1/4 110/1/4 111/1/4
f 111/1/4 110/1/4 112/1/4
f 115/1/5 114/1/5 113/1/5
f 116/1/5 114/1/5 115/1/5
f 119/2/5 118/2/5 117/2/5
f 120/2/5 118/2/5 119/2/5
f 123/3/5 122/3/5 121/3/5
f 124/3/5 122/3/5 123/3/5
f 127/3/5 126/3/5 125/3/5
f 128/3/5 126/3/5 127/3/5
f 131/2/5 130/2/5 129/2/5
f 132/2/5 130/2/5 131/2/5
f 135/3/5 134/3/5 133/3/5
f 136/3/5 134/3/5 135/3/5
f 139/3/5 138/3/5 137/3/5
f 140/3/5 138/3/5 139/3/5
f 141/3/6 142/3/6 143/3/6
f 143/3/6 142/3/6 144/3/6
f 145/3/6 146/3/6 147/3/6
f 147/3/6 146/3/6 148/3/6
f 149/2/6 150/2/6 151/2/6
f 151/2/6 150/2/6 152/2/6
f 153/3/6 154/3/6 155/3/6
f 155/3/6 154/3/6 156/3/6
f 157/3/6 158/3/6 159/3/6
f 159/3/6 158/3/6 160/3/6
f 161/2/6 162/2/6 163/2/6
f 163/2/6 162/2/6 164/2/6
f 165/1/6 166/1/6 167/1/6
f 167/1/6 166/1/6 168/1/6
